# xmcd CD database file
# Copyright (C) 1997 Ti Kan
# 
# Track frame offsets:
#     182
#     13090
#     28692
#     46842
#     59670
#     75352
#     82202
#     98407
#     113730
#     126740
#     140075
#     156312
#     176892
# 
# Disc length: 2622 seconds
# 
# Revision: 1
# Processed by: cddbd v1.4b41PL1 Copyright (c) Steve Scherf et al.
# Submitted via: DiscPlay 4.0.4
# 
DISCID=b30a3c0d
DTITLE=Five Blind Boys Of Alabama - Bridge Over Trobled Water
DYEAR=1900
DGENRE=
TTITLE0=I Saw The Light
TTITLE1=Lord I Tried
TTITLE2=Reach Out and Touch
TTITLE3=It's Alright
TTITLE4=Bridge Over troubled Water
TTITLE5=Oh Happy Day
TTITLE6=You've Got A Friend
TTITLE7=Put Your hand In The Hand
TTITLE8=Something's Got A Hold On Me
TTITLE9=God Is On The Throne
TTITLE10=I Want To Die Easy
TTITLE11=Father I Stretch My hands To Thee
TTITLE12=The Lord Will Make a Way Somehow
EXTD=
EXTT0=
EXTT1=
EXTT2=
EXTT3=
EXTT4=
EXTT5=
EXTT6=
EXTT7=
EXTT8=
EXTT9=
EXTT10=
EXTT11=
EXTT12=
PLAYORDER=
